# xmcd
#
# Track frame offsets:
#	183
#	21283
#	35495
#	55000
#	64833
#	79033
#	103395
#	116658
#	131033
#	146270
#	165933
#
# Disc length: 2398 seconds
#
# Revision: 12
# Processed by: cddbd v1.5.2PL0 Copyright (c) Steve Scherf et al.
# Submitted via: Jack! The Knife 20 Magnifico
#
DISCID=91095c0b
DTITLE=Venom - Prime Evil
DYEAR=1989
DGENRE=Metal
TTITLE0=Prime Evil
TTITLE1=Parasite
TTITLE2=Blackened Are The Priests
TTITLE3=Carnivorous
TTITLE4=Skeletal Dance
TTITLE5=Megalomania
TTITLE6=I Agree
TTITLE7=Harder Than Ever
TTITLE8=Into The Fire
TTITLE9=Skool Daze
TTITLE10=Live Like An Angel - Die Like A Devil
EXTD=Nick Tauber
EXTT0=Abaddon, Mantas, Banes, Dolan
EXTT1=Abaddon, Mantas, Banes, Dolan
EXTT2=Abaddon, Mantas, Banes, Dolan
EXTT3=Tony Dolan
EXTT4=Abaddon, Mantas, Banes, Dolan
EXTT5=Iommi, Ward, Osbourne, Butler
EXTT6=Abaddon, Mantas, Banes, Dolan
EXTT7=Abaddon, Mantas, Banes, Dolan
EXTT8=Abaddon, Mantas, Banes, Dolan
EXTT9=Abaddon, Mantas, Banes, Dolan
EXTT10=Abaddon, Mantas, Banes, Dolan
PLAYORDER=
